<?xml version="1.0" encoding="UTF-8"?>
<svg id="Layer_2" xmlns="http://www.w3.org/2000/svg" version="1.1" viewBox="0 0 422.82 57.62">
  <!-- Generator: Adobe Illustrator 29.7.1, SVG Export Plug-In . SVG Version: 2.1.1 Build 8)  -->
  <defs>
    <style>
      .st0 {
        fill: #ffffff;
      }
    </style>
  </defs>
  <g id="Layer_1-2">
    <g>
      <path class="st0" d="M34.15,36.5c-4.01,1.42-8.28,2.16-12.8,2.22h-1.72c-.42,0-.83,0-1.22-.04-.39-.03-.77-.05-1.13-.05-.42,0-.83,0-1.22-.04-.39-.03-.8-.05-1.22-.05v16.46c0,1.45-1.17,2.62-2.62,2.62H2.62c-1.45,0-2.62-1.17-2.62-2.62V2.62C0,1.17,1.17,0,2.62,0h17.91c.78,0,1.57.03,2.35.09,3.13.12,6.15.63,9.05,1.54,2.89.9,5.34,2.71,7.33,5.43,1.02,1.33,1.84,2.82,2.44,4.48s1.03,3.33,1.27,5.02c.06.48.1,1,.14,1.54.03.54.05,1.06.05,1.54,0,1.15-.08,2.31-.23,3.48-.15,1.18-.38,2.28-.68,3.3-1.39,5.31-4.09,8.67-8.1,10.09h0ZM15.6,26.01c.27.03.56.05.86.05.24,0,.5.02.77.04.27.03.53.05.77.05h.72c2.23-.06,4.3-.5,6.2-1.31,1.9-.81,2.88-2.64,2.94-5.47v-.54c0-2.53-.86-4.21-2.58-5.02s-3.6-1.28-5.65-1.4c-.36-.06-.72-.09-1.09-.09h-1.09c-1.45,0-2.62,1.17-2.62,2.62v11.04c.24,0,.5.02.77.04h0Z"/>
      <path class="st0" d="M56.83,38.9c-1.27,0-2.22,1.18-1.95,2.42.37,1.66,1.01,3.1,1.92,4.32,1.33,1.78,3.47,2.73,6.42,2.85h.27c0,.06-.03,0,0,0h.1c1.81,0,3.53-.3,5.01-1.08,1.06-.56,1.98-1.33,2.77-2.33.61-.76,1.66-.98,2.56-.62l6.47,2.6c1.35.54,1.86,2.22,1,3.4-1.5,2.05-3.48,3.65-5.93,4.77-3.35,1.54-6.89,2.34-10.63,2.4h-1.09c-3.38-.06-6.66-.72-9.86-1.99s-5.76-3.07-7.69-5.43c-1.45-1.69-2.61-3.6-3.48-5.74-.87-2.14-1.37-4.33-1.49-6.56v-1c0-.18,0-.39.05-.63.03-.24.07-.48.14-.72,0-.18,0-.39.04-.63.03-.24.05-.45.05-.63.66-5.97,3.14-10.67,7.42-14.11s9.14-5.16,14.56-5.16c1.15,0,2.28.08,3.39.23s2.25.38,3.39.68c5.67,1.63,9.47,4.57,11.4,8.82,1.68,3.7,2.67,7.75,2.98,12.15.08,1.08-.76,2-1.84,2h-25.99,0ZM57.57,25.6c-.92,1.03-1.63,2.29-2.13,3.78-.27.81.36,1.65,1.21,1.65h12.64c.95,0,1.58-.93,1.29-1.83-.43-1.32-1.12-2.47-2.06-3.46-1.36-1.42-3.18-2.16-5.47-2.22-2.41,0-4.24.69-5.47,2.08h-.01Z"/>
      <path class="st0" d="M87.77,17.91h10.5c.62,0,1.13.51,1.13,1.13v6.92c1.93-3.01,4.05-5.34,6.38-6.97,2.32-1.63,5.23-2.44,8.73-2.44h1.72c.18,0,.35.02.5.05.15.03.32.04.5.04,1.99.24,3.89.86,5.7,1.85s3.26,2.37,4.34,4.12c.84,1.51,1.37,3.11,1.58,4.79.21,1.69.35,3.41.41,5.16v23.66c0,.77-.62,1.39-1.39,1.39h-11.23c-.77,0-1.39-.62-1.39-1.39v-20.09c0-.44-.03-.88-.05-1.32s-.04-.93-.04-1.44c-.18-1.09-.48-2.14-.9-3.17-.42-1.02-1.12-1.81-2.08-2.35-.24-.12-.54-.23-.9-.32s-.72-.14-1.09-.14c-.24-.06-.48-.09-.72-.09h-1.27c-.18,0-.39.03-.63.09-.24,0-.5.02-.77.05-.27.03-.5.08-.68.14-2.17.72-3.62,1.99-4.34,3.8-.72,1.81-1.15,3.71-1.27,5.7-.06.66-.09,1.31-.09,1.94v8.7c0,5.46-4.43,9.89-9.89,9.89h-1.84c-1.11,0-2.02-.9-2.02-2.02V19.04c0-.62.51-1.13,1.13-1.13h-.03Z"/>
      <path class="st0" d="M136.2,27.68h-4.61c-.7,0-1.27-.57-1.27-1.27v-7.22c0-.7.57-1.27,1.27-1.27h4.61V7.43c0-.81.65-1.46,1.46-1.46h10.83c.81,0,1.46.65,1.46,1.46v10.48h4.79c.7,0,1.27.57,1.27,1.27v7.22c0,.7-.57,1.27-1.27,1.27h-4.79v28.41c0,.84-.68,1.53-1.53,1.53h-10.69c-.84,0-1.53-.68-1.53-1.53v-28.41h0Z"/>
      <path class="st0" d="M191.42,56.17h-.81c-1.23,0-2.23-1-2.23-2.23v-4.01c-1.87,2.53-3.92,4.45-6.15,5.74-2.23,1.3-4.82,1.95-7.78,1.95h-1.58c-.57,0-1.16-.06-1.76-.18-4.52-.66-7.92-2.76-10.18-6.29-2.26-3.53-3.6-7.37-4.03-11.53-.06-.54-.11-1.07-.14-1.58-.03-.51-.04-1.01-.04-1.49v-.59c0-.21.03-.44.09-.68,0-.36.03-.75.09-1.18.06-.42.09-.84.09-1.27.06-.18.11-.36.14-.54s.04-.36.04-.54c.66-4.82,2.58-8.77,5.74-11.85,3.17-3.08,7.22-4.61,12.17-4.61,3.08,0,5.65.68,7.73,2.04,2.08,1.36,3.93,3.27,5.56,5.74v-3.39c0-1.67,1.36-3.03,3.03-3.03h6.9c1.66,0,3.01,1.35,3.01,3.01v26.62c0,5.47-4.43,9.9-9.9,9.9h0ZM173.05,42.56c1.48,1.96,3.69,2.94,6.65,2.94s5.19-.98,6.69-2.94c1.51-1.96,2.26-4.12,2.26-6.47v-.72c-.18-2.23-1.03-4.28-2.53-6.15-1.51-1.87-3.65-2.8-6.42-2.8s-5.1.95-6.6,2.85c-1.51,1.9-2.32,3.97-2.44,6.2v.54c.12,2.41.92,4.6,2.4,6.56h0Z"/>
      <path class="st0" d="M265.87,38.9c-1.35,0-2.38,1.26-2.07,2.58.38,1.59,1,2.98,1.88,4.16,1.33,1.78,3.47,2.73,6.42,2.85h.27c0,.06.01.09.05.09h.14c1.81,0,3.45-.39,4.93-1.18.42-.22.82-.48,1.2-.77,2.09-1.61,4.94-1.85,7.39-.86l2.8,1.12c1.63.65,2.13,2.69,1.04,4.06-1.45,1.82-3.3,3.24-5.56,4.28-3.35,1.54-6.89,2.34-10.63,2.4h-1.09c-3.38-.06-6.66-.72-9.86-1.99-3.2-1.27-5.76-3.07-7.69-5.43-1.45-1.69-2.61-3.6-3.48-5.74s-1.37-4.33-1.49-6.56v-1c0-.18,0-.39.05-.63.03-.24.07-.48.14-.72,0-.18,0-.39.04-.63s.05-.45.05-.63c.66-5.97,3.14-10.67,7.42-14.11,4.28-3.44,9.14-5.16,14.56-5.16,1.15,0,2.28.08,3.39.23,1.11.15,2.25.38,3.39.68,5.67,1.63,9.47,4.57,11.4,8.82,1.39,3.07,2.32,6.39,2.77,9.95.28,2.23-1.46,4.2-3.71,4.2h-23.75ZM266.45,25.6c-.82.92-1.48,2.03-1.96,3.32-.38,1.02.36,2.11,1.44,2.11h11.93c1.1,0,1.87-1.1,1.5-2.13-.44-1.2-1.09-2.25-1.96-3.16-1.36-1.42-3.18-2.16-5.47-2.22-2.41,0-4.24.69-5.47,2.08h-.01Z"/>
      <path class="st0" d="M303.64,17.91h6.36v6.5c0,.65.86.88,1.19.32.48-.84,1.02-1.63,1.62-2.38,1.15-1.45,2.56-2.68,4.25-3.71,1.03-.66,2.11-1.1,3.26-1.31,1.15-.21,2.29-.32,3.44-.32.3,0,.62.02.95.04.33.03.68.05,1.04.05s.71.01,1.04.04c.33.03.65.04.95.04l-1.45,12.76c-.12-.06-.27-.11-.45-.14-.18-.03-.33-.04-.45-.04-.78-.18-1.54-.32-2.26-.41s-1.39-.14-1.99-.14c-3.08,0-5.58.98-7.51,2.94-1.93,1.96-2.89,4.93-2.89,8.91v8.97c0,4.19-3.39,7.58-7.58,7.58h-2.36c-2.2,0-3.99-1.79-3.99-3.99v-28.87c0-3.78,3.07-6.85,6.85-6.85h-.02Z"/>
      <path class="st0" d="M328.99,48.31c.76-2.73,3.76-4.15,6.35-3.01l.97.43c1.99.87,4.13,1.49,6.42,1.85.06,0,.14.02.23.05s.23.04.41.04c.12,0,.24.02.36.05s.27.04.45.04c.3,0,.63,0,1-.04.36-.03.69-.07,1-.14,1.08-.18,2.05-.51,2.89-1,.84-.48,1.27-1.11,1.27-1.9,0-.18-.03-.39-.09-.63s-.12-.51-.18-.81c-.06-.12-.12-.23-.18-.32s-.12-.19-.18-.32c-.42-.66-1.13-1.16-2.13-1.49s-2.04-.62-3.12-.86c-.36-.06-.74-.14-1.13-.23s-.8-.17-1.22-.23c-.3-.06-.6-.12-.9-.18s-.57-.12-.81-.18c-2.29-.78-4.45-1.85-6.47-3.21s-3.3-3.27-3.84-5.74c0-.12-.02-.24-.05-.36s-.04-.27-.04-.45c0-.06-.02-.12-.04-.18-.03-.06-.05-.12-.05-.18,0-.18-.02-.38-.04-.59-.03-.21-.05-.41-.05-.59v-.54c0-.18.03-.36.09-.54.12-1.69.6-3.32,1.45-4.88.84-1.57,1.93-2.86,3.26-3.89,1.27-.9,2.68-1.6,4.25-2.08s3.17-.78,4.79-.9c.24-.06.51-.09.81-.09h.9c.6,0,1.22.02,1.85.05s1.28.11,1.94.23c2.23.24,4.45.69,6.65,1.36.58.17,1.14.35,1.68.53,2.39.78,3.71,3.33,2.99,5.74h0c-.8,2.66-3.73,4.04-6.28,2.93-.23-.1-.46-.2-.7-.29-1.87-.75-3.92-1.13-6.15-1.13h-.77c-.27,0-.56.03-.86.09-.72.12-1.39.35-1.99.68-.6.33-1,.89-1.18,1.67l-.18.45v.27c.06.54.29,1.03.68,1.45.39.42.86.69,1.4.81.72.24,1.43.48,2.13.72.69.24,1.4.45,2.13.63.18.06.38.12.59.18s.41.12.59.18c.78.18,1.55.38,2.31.59.75.21,1.49.47,2.22.77,2.59.96,4.58,2.38,5.97,4.25s2.2,3.83,2.44,5.88c.06.24.09.47.09.68v1.27c0,.21-.03.44-.09.68-.18,1.51-.68,3-1.49,4.48s-1.95,2.76-3.39,3.84c-1.57,1.21-3.33,2.07-5.29,2.58-1.96.51-3.97.8-6.02.86h-1c-.54,0-1.07-.02-1.58-.05-.51-.03-1.04-.08-1.58-.14-2.66-.3-5.26-.86-7.83-1.67-1.1-.35-2.15-.72-3.16-1.12-2.18-.87-3.33-3.27-2.7-5.54l.22-.8h-.02Z"/>
      <circle class="st0" cx="417.41" cy="52.21" r="5.41"/>
      <path class="st0" d="M208.09,16.9h8.73c1.23,0,2.34.76,2.79,1.91l6.27,16c.19.43.34.87.47,1.3.12.44.28.87.46,1.3.19.62.38,1.24.56,1.86.19.62.34,1.27.47,1.94.06-.68.17-1.33.33-1.94.15-.62.36-1.24.61-1.86.13-.43.28-.86.47-1.3.19-.43.37-.86.56-1.3l6.17-15.98c.45-1.16,1.56-1.92,2.8-1.92h8.3c2.19,0,3.65,2.27,2.73,4.26l-15.55,33.85c-.73,1.59-2.32,2.61-4.07,2.61h-5.37c-1.76,0-3.35-1.03-4.08-2.63l-15.39-33.86c-.9-1.98.55-4.24,2.73-4.24h.01Z"/>
      <path class="st0" d="M377.31,38.9c.18,2.71.93,4.96,2.26,6.74,1.33,1.78,3.47,2.73,6.42,2.85h.27c0,.06.01.09.05.09h.14c1.81,0,3.45-.39,4.93-1.18.42-.22.82-.48,1.2-.77,2.09-1.61,4.94-1.85,7.39-.86l2.8,1.12c1.63.65,2.13,2.69,1.04,4.06-1.45,1.82-3.3,3.24-5.56,4.28-3.35,1.54-6.89,2.34-10.63,2.4h-1.09c-3.38-.06-6.66-.72-9.86-1.99-3.2-1.27-5.76-3.07-7.69-5.43-1.45-1.69-2.61-3.6-3.48-5.74-.87-2.14-1.37-4.33-1.49-6.56v-1c0-.18.01-.39.05-.63.03-.24.07-.48.14-.72,0-.18.01-.39.04-.63s.05-.45.05-.63c.66-5.97,3.14-10.67,7.42-14.11s9.14-5.16,14.56-5.16c1.15,0,2.28.08,3.39.23,1.11.15,2.25.38,3.39.68,5.67,1.63,9.47,4.57,11.4,8.82,1.32,2.91,2.22,6.05,2.69,9.4.36,2.52-1.65,4.76-4.2,4.76h-25.63v-.02ZM380.34,25.6c-1.24,1.39-2.1,3.2-2.58,5.43h16.01c-.3-2.11-1.13-3.87-2.49-5.29-1.36-1.42-3.18-2.16-5.47-2.22-2.41,0-4.24.69-5.47,2.08h0Z"/>
    </g>
  </g>
</svg>